# xmcd CD database file
#
# Track frame offsets:
#	150
#	15910
#	34247
#	54496
#	73812
#	93428
#	109994
#	131015
#	152792
#	171115
#	187865
#	202336
#	219564
#	235710
#	256339
#	273414
#
# Disc length: 3901 seconds
#
# Revision: 6
# Processed by: cddbd v1.5.1PL0 Copyright (c) Steve Scherf et al.
# Submitted via: CDex 1.51
#
DISCID=e40f3b10
DTITLE=Zezé Di Camargo and Luciano - Pra Sempre em Mim
DYEAR=2001
DGENRE=Techno
TTITLE0=Pra Sempre Em Mim
TTITLE1=Fala Sério
TTITLE2=Tanto Prá Te Dizer
TTITLE3=Nem Mais Uma Dúvida
TTITLE4=O Amor Deixou a Gente
TTITLE5=Diz Pro Meu Olhar
TTITLE6=Passou da Conta
TTITLE7=Só Com o Olhar
TTITLE8=Solidão a Três
TTITLE9=É Disso Que Eu Preciso
TTITLE10=Só Amando É Que Se Vive
TTITLE11=Menino Cantador
TTITLE12=Refém Do Amor
TTITLE13=Meu País
TTITLE14=Não Sou o Mesmo Sem Você Por Perto
TTITLE15=Bella Senz´Anima
EXTD=YEAR: 2001
EXTT0=
EXTT1=
EXTT2=
EXTT3=
EXTT4=
EXTT5=
EXTT6=
EXTT7=
EXTT8=
EXTT9=
EXTT10=
EXTT11=
EXTT12=
EXTT13=
EXTT14=
EXTT15=
PLAYORDER=
